<?xml version="1.0" standalone="no"?>
<!DOCTYPE svg PUBLIC "-//W3C//DTD SVG 20010904//EN"
 "http://www.w3.org/TR/2001/REC-SVG-20010904/DTD/svg10.dtd">
<svg version="1.0" xmlns="http://www.w3.org/2000/svg"
 width="1280.000000pt" height="1271.000000pt" viewBox="0 0 1280.000000 1271.000000"
 preserveAspectRatio="xMidYMid meet">
<metadata>
Created by potrace 1.15, written by Peter Selinger 2001-2017
</metadata>
<g transform="translate(0.000000,1271.000000) scale(0.100000,-0.100000)"
fill="#00bcd4" stroke="none">
<path d="M4374 12691 c-119 -26 -113 -21 -102 -79 l10 -51 -48 -55 c-45 -53
-51 -56 -93 -56 -37 0 -61 -9 -126 -49 l-80 -49 -120 -8 c-110 -6 -124 -9
-162 -36 -24 -16 -43 -26 -43 -23 0 3 -9 -4 -20 -15 -13 -13 -20 -33 -20 -60
0 -25 -5 -40 -12 -40 -7 0 -40 20 -73 45 l-60 45 -120 0 -121 0 -29 30 c-23
24 -38 30 -69 30 -23 1 -66 9 -96 20 -30 11 -57 20 -60 20 -3 0 -3 -27 -2 -60
l4 -61 79 -61 79 -61 0 -72 c0 -62 6 -88 46 -188 61 -155 71 -167 140 -167 30
0 54 -4 54 -10 0 -5 -5 -10 -10 -10 -6 0 -22 -11 -35 -24 -18 -18 -38 -26 -72
-28 l-48 -3 -15 -74 c-13 -63 -19 -75 -40 -83 -14 -4 -84 -36 -155 -71 -120
-57 -135 -67 -185 -126 l-55 -64 -3 47 c-3 40 -6 47 -20 41 -9 -4 -69 -24
-132 -45 l-114 -37 -85 63 c-58 44 -93 64 -113 64 -28 0 -29 2 -22 35 3 19 7
42 8 50 1 17 -143 223 -157 224 -13 1 -155 -109 -161 -125 -5 -12 -16 -7 -52
25 -26 23 -50 41 -53 41 -3 0 -24 -25 -45 -55 l-39 -55 -126 0 c-69 0 -177 -3
-240 -7 l-114 -6 5 -129 c3 -70 7 -130 9 -133 3 -2 47 -7 99 -11 52 -4 98 -12
102 -18 4 -6 8 -24 8 -40 l0 -30 -28 26 c-21 20 -32 24 -52 17 -14 -4 -64 -20
-112 -34 l-88 -26 0 -144 0 -145 69 -50 c61 -44 69 -54 75 -91 4 -23 22 -75
41 -115 l34 -74 -44 -264 c-74 -438 -128 -716 -141 -716 -3 0 -41 14 -85 31
l-79 32 -58 -40 c-43 -29 -86 -47 -175 -71 -161 -43 -246 -85 -342 -167 -44
-37 -104 -85 -132 -107 l-53 -39 0 -80 c0 -71 -4 -87 -35 -149 -27 -54 -35
-82 -35 -124 l0 -55 -94 -106 -94 -107 14 -40 c15 -44 15 -46 -34 -100 l-25
-27 63 -108 c111 -191 124 -210 209 -309 l84 -97 -22 -44 c-39 -81 -37 -83 87
-83 l108 0 42 -43 c34 -35 42 -50 42 -79 0 -40 -3 -38 104 -64 16 -4 74 -1
129 6 l101 14 65 56 c36 31 72 64 80 73 7 10 17 17 22 17 4 0 8 -91 8 -202
l-1 -203 70 -38 71 -37 64 35 64 35 139 0 c125 0 145 -3 206 -26 l68 -26 137
88 c75 48 224 144 330 215 106 70 217 137 246 147 44 17 114 28 280 46 l28 3
-8 -91 c-11 -119 -8 -174 13 -335 l18 -135 96 -96 c52 -52 136 -124 187 -158
l91 -62 116 0 c112 0 116 -1 132 -25 13 -21 24 -25 62 -25 39 0 59 -9 137 -59
73 -48 103 -61 160 -71 66 -12 74 -17 135 -76 l65 -63 118 16 118 15 66 -44
c36 -23 70 -46 76 -49 5 -4 18 -43 27 -87 15 -69 16 -99 8 -211 l-10 -130 45
-51 44 -51 7 -122 c4 -66 8 -122 10 -124 13 -14 139 -25 339 -30 130 -3 237
-6 237 -7 0 -1 -9 -29 -19 -64 l-19 -63 23 -85 c13 -47 25 -87 27 -88 2 -2 34
-14 72 -27 68 -24 70 -25 116 -99 l47 -75 -15 -149 -14 -149 -73 -174 -73
-173 57 -181 57 -181 -14 -161 -14 -162 26 -21 c31 -27 124 -49 274 -64 l113
-12 35 27 35 27 50 -22 c28 -11 72 -24 98 -27 l48 -5 21 -97 c12 -53 28 -121
37 -151 8 -30 15 -86 15 -125 l1 -70 58 -65 59 -65 103 34 103 34 18 -23 c41
-51 43 -90 15 -252 -21 -122 -30 -153 -47 -165 -17 -12 -20 -25 -20 -82 l0
-68 87 14 c47 8 92 12 99 9 17 -6 41 -88 59 -201 21 -129 19 -169 -11 -224
-23 -42 -34 -50 -146 -105 -67 -32 -140 -76 -162 -96 -23 -20 -75 -59 -116
-86 -105 -69 -200 -168 -341 -356 -67 -90 -150 -193 -185 -230 -54 -57 -124
-146 -147 -185 -5 -7 15 -19 58 -33 l66 -22 59 35 59 36 86 -77 c77 -69 92
-88 136 -176 l50 -99 37 35 c83 77 76 75 110 20 24 -40 47 -60 114 -98 46 -27
106 -72 134 -101 38 -39 69 -59 125 -81 l74 -30 31 -77 c27 -68 36 -79 75
-102 24 -13 45 -26 46 -27 1 -1 -18 -35 -42 -76 -40 -66 -45 -82 -45 -135 0
-121 31 -166 88 -129 15 9 73 57 128 106 101 88 102 89 152 201 28 61 59 133
69 158 15 39 36 62 128 135 249 201 305 269 485 594 l102 185 174 176 c160
161 174 178 174 211 0 40 26 126 64 212 18 42 26 76 26 118 0 55 -1 58 -19 48
-11 -5 -22 -10 -25 -10 -2 0 -14 28 -25 63 -20 59 -20 66 -6 141 43 223 68
281 151 346 52 41 64 56 64 79 0 24 14 37 113 104 61 42 151 103 199 135 48
33 130 78 182 101 80 35 103 41 164 41 65 0 73 3 110 33 22 18 61 41 88 51 27
10 83 32 125 48 l77 29 6 44 c4 25 12 47 17 51 6 3 28 -8 50 -25 38 -31 39
-31 39 -9 l0 23 325 -3 325 -3 20 33 c11 18 23 54 26 80 l6 46 92 38 c50 20
117 50 149 66 l57 28 0 86 c0 76 4 95 35 166 28 64 50 97 112 162 43 44 102
109 130 144 45 54 51 66 43 87 -8 21 -6 25 26 35 72 24 99 102 129 365 9 77
18 149 21 160 2 11 42 54 89 95 l85 74 0 116 0 115 66 199 67 199 -22 189 -22
189 36 110 37 109 -21 34 -21 34 25 16 c23 15 25 23 25 85 0 63 2 70 30 94 35
31 35 35 15 84 -17 40 -19 53 -7 53 4 0 23 -29 42 -65 19 -36 38 -65 42 -65
16 0 123 108 181 183 91 118 139 192 208 319 33 62 70 124 82 137 44 47 151
120 207 141 51 19 68 33 126 103 38 45 100 114 139 152 71 69 258 310 309 397
22 37 28 68 40 184 31 296 31 324 3 416 -14 46 -28 112 -31 148 -4 37 -27 124
-53 201 l-46 135 -64 47 c-51 36 -75 47 -116 51 -244 25 -260 28 -326 63 -36
20 -87 50 -112 68 -25 18 -57 36 -70 40 -13 4 -87 69 -164 145 -222 217 -392
344 -623 469 l-113 61 -233 0 c-220 0 -234 1 -251 20 -16 17 -31 20 -116 20
l-99 0 -145 72 -144 72 -88 -28 c-48 -16 -113 -39 -144 -51 l-57 -23 -5 45
c-6 53 -9 58 -35 44 -18 -10 -22 -5 -42 52 -26 69 -74 137 -148 210 l-49 49
-62 -10 c-37 -5 -61 -5 -61 0 0 5 -25 36 -57 69 -51 53 -60 59 -97 59 -36 0
-48 6 -81 41 -35 35 -44 39 -72 34 -25 -4 -48 2 -101 29 -52 26 -72 32 -81 23
-8 -8 -11 -7 -11 6 0 9 -10 19 -22 22 -13 3 -76 16 -141 30 l-118 25 -39 -20
c-21 -11 -46 -17 -54 -14 -25 9 -64 -22 -102 -81 -19 -30 -43 -59 -53 -65 -11
-5 -25 -26 -31 -45 -6 -19 -24 -43 -39 -54 -15 -11 -40 -38 -56 -61 -26 -37
-87 -80 -115 -80 -5 0 -10 14 -10 30 0 28 3 30 38 30 39 1 79 28 102 69 6 13
36 52 66 87 47 55 57 74 64 122 6 31 16 82 24 112 8 30 13 56 11 58 -2 2 -79
20 -171 39 l-168 36 -38 -22 -38 -22 -134 26 -135 26 -70 -35 c-77 -39 -68
-23 -101 -193 -7 -35 -17 -63 -23 -63 -5 0 -71 -36 -146 -80 -75 -44 -141 -80
-145 -80 -5 0 14 24 43 54 l51 55 0 68 0 69 128 127 c74 72 142 132 160 138
26 9 41 28 77 94 45 82 46 83 96 95 49 12 53 15 77 69 17 36 28 79 30 121 4
62 2 67 -31 111 -32 41 -42 47 -95 59 -33 6 -63 15 -68 19 -5 3 -39 69 -77
146 -63 132 -70 152 -111 345 -36 170 -49 214 -76 258 l-33 52 -54 0 c-59 0
-62 -3 -82 -85 -7 -27 -41 -76 -102 -150 -70 -85 -107 -143 -165 -255 -95
-186 -105 -198 -169 -201 -42 -3 -50 0 -55 17 -5 19 -8 20 -127 8 -67 -7 -145
-17 -175 -23 -53 -9 -53 -9 -178 53 l-125 63 -95 -26 c-89 -25 -98 -26 -141
-13 -41 13 -49 13 -83 -3 -24 -11 -44 -32 -57 -57 l-20 -39 35 -50 c20 -27 33
-49 28 -49 -4 0 -34 4 -67 10 -33 5 -125 14 -204 20 l-145 10 -58 -45 c-49
-38 -65 -45 -102 -45 -36 0 -47 -5 -60 -25 -14 -21 -24 -25 -69 -25 -49 0 -59
-4 -127 -55 -40 -30 -77 -55 -82 -55 -18 0 -135 64 -174 95 -22 19 -58 58 -79
89 -37 53 -37 56 -21 80 9 14 16 28 16 31 0 2 -24 21 -54 40 -42 28 -52 41
-49 58 2 12 14 92 27 177 23 144 27 156 52 175 67 50 65 37 22 173 l-40 122
-55 0 c-52 0 -54 1 -48 23 4 12 18 40 31 63 l23 41 -45 66 c-28 42 -51 67 -62
66 -9 -1 -53 -9 -98 -18z m3796 -10001 c0 -5 -2 -10 -4 -10 -3 0 -8 5 -11 10
-3 6 -1 10 4 10 6 0 11 -4 11 -10z"/>
</g>
</svg>
